<?xml version="1.0" encoding="UTF-8"?>
<svg id="Capa_1" xmlns="http://www.w3.org/2000/svg" version="1.1" viewBox="0 0 4422.05 6812">
  <!-- Generator: Adobe Illustrator 29.5.0, SVG Export Plug-In . SVG Version: 2.1.0 Build 137)  -->
  <defs>
    <style>
      .st0 {
        font-size: 63px;
      }

      .st0, .st1, .st2 {
        font-family: Helvetica, Helvetica;
      }

      .st3 {
        font-size: 65.42px;
      }

      .st3, .st4 {
        fill: #e32021;
        font-family: Helvetica-Bold, Helvetica;
        font-weight: 700;
      }

      .st5, .st6, .st7, .st8, .st9 {
        fill: none;
      }

      .st4, .st2 {
        font-size: 54.51px;
      }

      .st1 {
        font-size: 62px;
      }

      .st6 {
        stroke: #e32021;
      }

      .st6, .st7, .st8, .st9 {
        stroke-linecap: square;
        stroke-miterlimit: 10;
        stroke-width: 2.13px;
      }

      .st7 {
        stroke: #ffe900;
      }

      .st8 {
        stroke: #ebe200;
      }

      .st9 {
        stroke: #e5222e;
      }
    </style>
  </defs>
  <path class="st8" d="M3254.09,1711.23l-189.98,468.93-1647.29,4277.15-166.4-.18s-4.72-27.66-10.99-79.1c-4.97-40.86-13.78-98.27-21.27-170.71-48.87-472.31-82.73-1543.06-90.64-2611.3-2.1-284.01,11.54-551.71,21.93-808.48,14.25-352.15,34.71-683.72,112.66-1008.56,195.56-814.95,775.04-900.97,1072.4-828.31,251.14,61.36,489.14,173.36,719.47,534.75,68.62,107.67,200.1,225.81,200.1,225.81Z"/>
  <path class="st9" d="M1292.71,6434.23c-3.14-39.81-7.14-84.79-11.86-134.49-52.53-553.71-87.76-1692.89-88.71-2783.71-.06-62.18-3.02-124.23-.88-185.94,19.63-565.33,23.13-730.82,51.09-1056.09,4.44-51.63,30.96-262.46,70.48-455.37,35.62-173.87,106.81-333.47,114.22-348.25,47.51-94.77,104.39-178.66,168.9-250.02,165.43-182.98,494.8-289.71,818.9-183.65,480.79,157.34,675.86,686.1,682.54,703.81,1.12,2.97,1.69,4.52,1.69,4.52l-1806.38,4689.17"/>
  <rect class="st5" y="0" width="4422.05" height="6812"/>
  <rect class="st7" x="183.2" y="478.49" width="1151.28" height="102.33"/>
  <text class="st2" transform="translate(217.19 547.51)"><tspan x="0" y="0">MARGEN DE SANGRADO</tspan></text>
  <rect class="st6" x="183.2" y="637.35" width="1151.28" height="102.33"/>
  <text class="st2" transform="translate(217.19 714.29)"><tspan x="0" y="0">ÁREA DE SEGURIDAD</tspan></text>
  <text class="st0" transform="translate(184.19 262.51)"><tspan x="0" y="0">PLANTILLA FLY BANNER GOTA S</tspan></text>
  <text class="st3" transform="translate(1447.03 262.51)"><tspan x="0" y="0">ATENCIÓN</tspan></text>
  <text class="st4" transform="translate(1447.02 388.39)"><tspan x="0" y="0">NO ELIMINES LAS LÍNEAS AMARILLAS</tspan></text>
  <text class="st4" transform="translate(1448.03 547.51)"><tspan x="0" y="0">ELIMINA LAS LÍNEAS ROJAS</tspan></text>
  <text class="st4" transform="translate(1447.02 714.29)"><tspan x="0" y="0">NO MODIFIQUES LAS DIMENSIONES (ALTO Y ANCHO) DE LA PLANTILLA</tspan></text>
  <text class="st1" transform="translate(185.2 388.39)"><tspan x="0" y="0">TAMAÑO: S</tspan></text>
</svg>